# xmcd
#
# Track frame offsets: 
#        150
#        14088
#        31086
#        42902
#        56051
#        70680
#        80593
#        93082
#        106582
#        118603
#        130840
#        143151
#        154866
#        166895
#        180117
#        199899
#        213469
#
# Disc length: 3023 seconds
#
# Revision: 0
# Processed by: cddbd v1.5.2PL0 Copyright (c) Steve Scherf et al.
# Submitted via: ExactAudioCopy v0.95b2
#
DISCID=dc0bcd11
DTITLE=Various Artist - Livin' the Blues 
DYEAR=2005
DGENRE=Blues
TTITLE0=Forty Days and Forty Nights - Muddy Waters
TTITLE1=All My Life - Howlin' Wolf
TTITLE2=Fickle Woman - Jimmy Witherspoon
TTITLE3=Thinking My Blues Away - Sonny Boy Williamson
TTITLE4=Ham and Eggs - Sonny Terry
TTITLE5=She's Mine, She's Yours - Jimmy Rushing
TTITLE6=Rockin' Chair Blues - Ray Charles
TTITLE7=Stool Pigeon Blues - Lightnin' Hopkins
TTITLE8=Trouble Blues - Charles Brown
TTITLE9=Lone Wolf Blues - Big Bill Broonzy
TTITLE10=Kansas City Papa - Leadbelly
TTITLE11=Let the Good Time Roll Creole - Memphis Slim
TTITLE12=Face in the Crowd - Brownie McGhee
TTITLE13=Rambler's Blues - Lonnie Johnson
TTITLE14=Nothing' From Nuthin' Blues - Big Joe Turner
TTITLE15=Sweet Home Chicago - Robert Johnson
TTITLE16=Salty Dog Blues - Mississippi John Hurt
EXTD=
EXTT0=
EXTT1=
EXTT2=
EXTT3=
EXTT4=
EXTT5=
EXTT6=
EXTT7=
EXTT8=
EXTT9=
EXTT10=
EXTT11=
EXTT12=
EXTT13=
EXTT14=
EXTT15=
EXTT16=
PLAYORDER=
